<svg xmlns="http://www.w3.org/2000/svg" width="1200" height="630" viewBox="0 0 1200 630">
  <defs>
    <radialGradient id="glow"><stop stop-color="#69459c"/><stop offset="1" stop-color="#221930"/></radialGradient>
  </defs>
  <rect width="1200" height="630" fill="#221930"/>
  <ellipse cx="1040" cy="70" rx="650" ry="520" fill="url(#glow)"/>
  <rect x="48" y="48" width="1104" height="534" rx="28" fill="none" stroke="#695a87" stroke-width="2"/>
  <g transform="translate(88 88) scale(1.75)">
    <path d="M11 20 22 10h37v41L48 61H11Z" fill="#17131e"/>
    <path d="M8 17 19 7h37L45 17Z" fill="#f0ffa0" stroke="#221930" stroke-width="2.5"/>
    <path d="M45 17 56 7v41L45 58Z" fill="#a5c745" stroke="#221930" stroke-width="2.5"/>
    <path d="M8 17h37v41H8Z" fill="#d8fc61" stroke="#221930" stroke-width="2.5"/>
    <circle cx="31" cy="11.5" r="2" fill="#221930"/>
    <circle cx="50.5" cy="28" r="2.2" fill="#221930"/>
    <circle cx="50.5" cy="43" r="2.2" fill="#221930"/>
    <path d="M17 25h7v3c2-2 4.5-3 7.5-3 7.1 0 10.5 5.5 10.5 11s-3.4 11-10.5 11c-3 0-5.5-1-7.5-3v11h-7V25Z" fill="#221930"/>
    <circle cx="32" cy="36" r="4.2" fill="#d8fc61"/>
  </g>
  <g font-family="Arial, sans-serif">
    <text x="215" y="166" fill="#fff8e8" font-size="74" font-weight="700">PartySide</text>
    <text x="100" y="286" fill="#fff8e8" font-size="52" font-weight="700">Игры для своей компании</text>
    <text x="102" y="349" fill="#cfc5da" font-size="28">В браузере. С друзьями. Без установки.</text>
    <g font-size="24" font-weight="700" fill="#221930">
      <rect x="100" y="411" width="176" height="58" rx="16" fill="#d8fc61"/>
      <text x="140" y="449">Бункер</text>
      <rect x="292" y="411" width="176" height="58" rx="16" fill="#e3aff6"/>
      <text x="341" y="449">Дурак</text>
      <rect x="484" y="411" width="152" height="58" rx="16" fill="#fff8e8"/>
      <text x="533" y="449">UNO</text>
    </g>
    <text x="100" y="533" fill="#d8fc61" font-size="24">partyside.fun</text>
  </g>
</svg>
